<?xml version="1.0" encoding="utf-8"?><svg xmlns="http://www.w3.org/2000/svg" xmlns:xlink="http://www.w3.org/1999/xlink" width="1366" height="617" preserveAspectRatio="xMidYMid" viewBox="0 0 1366 617" style="z-index:1;margin-right:-2px;display:block;background-repeat-y:initial;background-repeat-x:initial;background-color:rgb(241, 242, 243);animation-play-state:paused" ><g transform="translate(683,308.5) scale(1,1) translate(-683,-308.5)" style="transform:matrix(1, 0, 0, 1, 0, 0);animation-play-state:paused" ><g id="bk-0.45057313328736526" style="animation-play-state:paused" ><path d="M 628 265 L 624 360 L 708 358 Z" stroke="#6f88db" fill="#6f88db" style="animation-play-state:paused" ></path>
<path d="M 708 358 L 703 257 L 628 265 Z" stroke="#718bdd" fill="#718bdd" style="animation-play-state:paused" ></path>
<path d="M 624 360 L 695 437 L 708 358 Z" stroke="#6b7ed5" fill="#6b7ed5" style="animation-play-state:paused" ></path>
<path d="M 708 358 L 803 348 L 703 257 Z" stroke="#6d83d8" fill="#6d83d8" style="animation-play-state:paused" ></path>
<path d="M 509 266 L 533 386 L 624 360 Z" stroke="#728ede" fill="#728ede" style="animation-play-state:paused" ></path>
<path d="M 624 360 L 597 437 L 695 437 Z" stroke="#6a7ed5" fill="#6a7ed5" style="animation-play-state:paused" ></path>
<path d="M 533 386 L 597 437 L 624 360 Z" stroke="#6d84d9" fill="#6d84d9" style="animation-play-state:paused" ></path>
<path d="M 599 151 L 509 266 L 628 265 Z" stroke="#7a9ee5" fill="#7a9ee5" style="animation-play-state:paused" ></path>
<path d="M 628 265 L 509 266 L 624 360 Z" stroke="#7492e0" fill="#7492e0" style="animation-play-state:paused" ></path>
<path d="M 695 437 L 803 348 L 708 358 Z" stroke="#697bd3" fill="#697bd3" style="animation-play-state:paused" ></path>
<path d="M 834 274 L 736 152 L 703 257 Z" stroke="#7391df" fill="#7391df" style="animation-play-state:paused" ></path>
<path d="M 703 257 L 736 152 L 628 265 Z" stroke="#7696e1" fill="#7696e1" style="animation-play-state:paused" ></path>
<path d="M 803 348 L 834 274 L 703 257 Z" stroke="#6d84d9" fill="#6d84d9" style="animation-play-state:paused" ></path>
<path d="M 736 152 L 599 151 L 628 265 Z" stroke="#7b9fe5" fill="#7b9fe5" style="animation-play-state:paused" ></path>
<path d="M 533 386 L 543 455 L 597 437 Z" stroke="#6c83d8" fill="#6c83d8" style="animation-play-state:paused" ></path>
<path d="M 597 437 L 607 538 L 695 437 Z" stroke="#6877d1" fill="#6877d1" style="animation-play-state:paused" ></path>
<path d="M 419 453 L 543 455 L 533 386 Z" stroke="#6e87da" fill="#6e87da" style="animation-play-state:paused" ></path>
<path d="M 599 151 L 529 164 L 509 266 Z" stroke="#80a5e8" fill="#80a5e8" style="animation-play-state:paused" ></path>
<path d="M 834 274 L 806 142 L 736 152 Z" stroke="#7696e1" fill="#7696e1" style="animation-play-state:paused" ></path>
<path d="M 736 152 L 629 79 L 599 151 Z" stroke="#83a9e9" fill="#83a9e9" style="animation-play-state:paused" ></path>
<path d="M 543 455 L 607 538 L 597 437 Z" stroke="#697bd3" fill="#697bd3" style="animation-play-state:paused" ></path>
<path d="M 695 437 L 828 476 L 803 348 Z" stroke="#6672cd" fill="#6672cd" style="animation-play-state:paused" ></path>
<path d="M 706 565 L 828 476 L 695 437 Z" stroke="#646bc9" fill="#646bc9" style="animation-play-state:paused" ></path>
<path d="M 803 348 L 926 260 L 834 274 Z" stroke="#6b80d6" fill="#6b80d6" style="animation-play-state:paused" ></path>
<path d="M 416 264 L 406 342 L 509 266 Z" stroke="#7b9ee5" fill="#7b9ee5" style="animation-play-state:paused" ></path>
<path d="M 509 266 L 406 342 L 533 386 Z" stroke="#7595e1" fill="#7595e1" style="animation-play-state:paused" ></path>
<path d="M 607 538 L 706 565 L 695 437 Z" stroke="#656fcc" fill="#656fcc" style="animation-play-state:paused" ></path>
<path d="M 529 164 L 416 264 L 509 266 Z" stroke="#7fa4e7" fill="#7fa4e7" style="animation-play-state:paused" ></path>
<path d="M 729 56 L 629 79 L 736 152 Z" stroke="#85acea" fill="#85acea" style="animation-play-state:paused" ></path>
<path d="M 599 151 L 508 63 L 529 164 Z" stroke="#89b1ec" fill="#89b1ec" style="animation-play-state:paused" ></path>
<path d="M 949 379 L 926 260 L 803 348 Z" stroke="#6878d1" fill="#6878d1" style="animation-play-state:paused" ></path>
<path d="M 834 274 L 926 260 L 806 142 Z" stroke="#708bdc" fill="#708bdc" style="animation-play-state:paused" ></path>
<path d="M 806 142 L 729 56 L 736 152 Z" stroke="#80a5e8" fill="#80a5e8" style="animation-play-state:paused" ></path>
<path d="M 406 342 L 419 453 L 533 386 Z" stroke="#728fde" fill="#728fde" style="animation-play-state:paused" ></path>
<path d="M 543 455 L 545 578 L 607 538 Z" stroke="#6878d1" fill="#6878d1" style="animation-play-state:paused" ></path>
<path d="M 920 468 L 949 379 L 803 348 Z" stroke="#646dca" fill="#646dca" style="animation-play-state:paused" ></path>
<path d="M 430 572 L 545 578 L 543 455 Z" stroke="#697cd4" fill="#697cd4" style="animation-play-state:paused" ></path>
<path d="M 607 538 L 610 667 L 706 565 Z" stroke="#636bc9" fill="#636bc9" style="animation-play-state:paused" ></path>
<path d="M 828 476 L 920 468 L 803 348 Z" stroke="#636bc9" fill="#636bc9" style="animation-play-state:paused" ></path>
<path d="M 911 556 L 920 468 L 828 476 Z" stroke="#605fc1" fill="#605fc1" style="animation-play-state:paused" ></path>
<path d="M 811 661 L 823 570 L 706 565 Z" stroke="#605dbf" fill="#605dbf" style="animation-play-state:paused" ></path>
<path d="M 706 565 L 823 570 L 828 476 Z" stroke="#6163c3" fill="#6163c3" style="animation-play-state:paused" ></path>
<path d="M 904 149 L 839 67 L 806 142 Z" stroke="#7c9fe5" fill="#7c9fe5" style="animation-play-state:paused" ></path>
<path d="M 806 142 L 839 67 L 729 56 Z" stroke="#82a8e9" fill="#82a8e9" style="animation-play-state:paused" ></path>
<path d="M 621 -46 L 508 63 L 629 79 Z" stroke="#95bef1" fill="#95bef1" style="animation-play-state:paused" ></path>
<path d="M 629 79 L 508 63 L 599 151 Z" stroke="#8bb3ed" fill="#8bb3ed" style="animation-play-state:paused" ></path>
<path d="M 529 164 L 420 151 L 416 264 Z" stroke="#85acea" fill="#85acea" style="animation-play-state:paused" ></path>
<path d="M 1021 168 L 904 149 L 926 260 Z" stroke="#718cdd" fill="#718cdd" style="animation-play-state:paused" ></path>
<path d="M 926 260 L 904 149 L 806 142 Z" stroke="#7491df" fill="#7491df" style="animation-play-state:paused" ></path>
<path d="M 437 80 L 420 151 L 529 164 Z" stroke="#8db5ee" fill="#8db5ee" style="animation-play-state:paused" ></path>
<path d="M 416 264 L 320 352 L 406 342 Z" stroke="#7c9fe5" fill="#7c9fe5" style="animation-play-state:paused" ></path>
<path d="M 508 63 L 437 80 L 529 164 Z" stroke="#8fb8ef" fill="#8fb8ef" style="animation-play-state:paused" ></path>
<path d="M 317 263 L 320 352 L 416 264 Z" stroke="#80a6e8" fill="#80a6e8" style="animation-play-state:paused" ></path>
<path d="M 406 342 L 335 467 L 419 453 Z" stroke="#7492e0" fill="#7492e0" style="animation-play-state:paused" ></path>
<path d="M 419 453 L 430 572 L 543 455 Z" stroke="#6d83d8" fill="#6d83d8" style="animation-play-state:paused" ></path>
<path d="M 317 263 L 416 264 L 318 164 Z" stroke="#87aeeb" fill="#87aeeb" style="animation-play-state:paused" ></path>
<path d="M 308 545 L 430 572 L 419 453 Z" stroke="#6f88db" fill="#6f88db" style="animation-play-state:paused" ></path>
<path d="M 545 578 L 610 667 L 607 538 Z" stroke="#656fcc" fill="#656fcc" style="animation-play-state:paused" ></path>
<path d="M 823 570 L 911 556 L 828 476 Z" stroke="#605dc0" fill="#605dc0" style="animation-play-state:paused" ></path>
<path d="M 1035 368 L 1031 255 L 949 379 Z" stroke="#6570cc" fill="#6570cc" style="animation-play-state:paused" ></path>
<path d="M 500 662 L 610 667 L 545 578 Z" stroke="#6570cc" fill="#6570cc" style="animation-play-state:paused" ></path>
<path d="M 823 570 L 907 660 L 911 556 Z" stroke="#5e54b9" fill="#5e54b9" style="animation-play-state:paused" ></path>
<path d="M 610 667 L 724 669 L 706 565 Z" stroke="#6164c4" fill="#6164c4" style="animation-play-state:paused" ></path>
<path d="M 318 164 L 416 264 L 420 151 Z" stroke="#89b1ec" fill="#89b1ec" style="animation-play-state:paused" ></path>
<path d="M 334 60 L 318 164 L 420 151 Z" stroke="#95bef1" fill="#95bef1" style="animation-play-state:paused" ></path>
<path d="M 949 379 L 1031 255 L 926 260 Z" stroke="#6878d1" fill="#6878d1" style="animation-play-state:paused" ></path>
<path d="M 904 149 L 937 82 L 839 67 Z" stroke="#7da1e6" fill="#7da1e6" style="animation-play-state:paused" ></path>
<path d="M 1035 368 L 949 379 L 1029 483 Z" stroke="#6163c4" fill="#6163c4" style="animation-play-state:paused" ></path>
<path d="M 430 572 L 500 662 L 545 578 Z" stroke="#6878d1" fill="#6878d1" style="animation-play-state:paused" ></path>
<path d="M 320 352 L 335 467 L 406 342 Z" stroke="#7899e3" fill="#7899e3" style="animation-play-state:paused" ></path>
<path d="M 308 545 L 335 467 L 231 475 Z" stroke="#7493e0" fill="#7493e0" style="animation-play-state:paused" ></path>
<path d="M 724 669 L 811 661 L 706 565 Z" stroke="#605dc0" fill="#605dc0" style="animation-play-state:paused" ></path>
<path d="M 1021 168 L 937 82 L 904 149 Z" stroke="#7797e2" fill="#7797e2" style="animation-play-state:paused" ></path>
<path d="M 714 -62 L 629 79 L 729 56 Z" stroke="#91baef" fill="#91baef" style="animation-play-state:paused" ></path>
<path d="M 714 -62 L 729 56 L 805 -38 Z" stroke="#95bef1" fill="#95bef1" style="animation-play-state:paused" ></path>
<path d="M 714 -62 L 621 -46 L 629 79 Z" stroke="#99c2f2" fill="#99c2f2" style="animation-play-state:paused" ></path>
<path d="M 508 63 L 516 -51 L 437 80 Z" stroke="#9cc4f3" fill="#9cc4f3" style="animation-play-state:paused" ></path>
<path d="M 1029 483 L 949 379 L 920 468 Z" stroke="#6061c2" fill="#6061c2" style="animation-play-state:paused" ></path>
<path d="M 805 -38 L 729 56 L 839 67 Z" stroke="#8bb4ed" fill="#8bb4ed" style="animation-play-state:paused" ></path>
<path d="M 1134 164 L 1021 168 L 1031 255 Z" stroke="#6e86d9" fill="#6e86d9" style="animation-play-state:paused" ></path>
<path d="M 1031 255 L 1021 168 L 926 260 Z" stroke="#6d83d8" fill="#6d83d8" style="animation-play-state:paused" ></path>
<path d="M 1047 560 L 1029 483 L 911 556 Z" stroke="#5d51b7" fill="#5d51b7" style="animation-play-state:paused" ></path>
<path d="M 911 556 L 1029 483 L 920 468 Z" stroke="#5f59bd" fill="#5f59bd" style="animation-play-state:paused" ></path>
<path d="M 945 -41 L 805 -38 L 839 67 Z" stroke="#8eb6ee" fill="#8eb6ee" style="animation-play-state:paused" ></path>
<path d="M 529 -139 L 516 -51 L 621 -46 Z" stroke="#add3f8" fill="#add3f8" style="animation-play-state:paused" ></path>
<path d="M 945 -41 L 839 67 L 937 82 Z" stroke="#85adea" fill="#85adea" style="animation-play-state:paused" ></path>
<path d="M 624 -159 L 621 -46 L 714 -62 Z" stroke="#a9d0f7" fill="#a9d0f7" style="animation-play-state:paused" ></path>
<path d="M 621 -46 L 516 -51 L 508 63 Z" stroke="#a0c8f4" fill="#a0c8f4" style="animation-play-state:paused" ></path>
<path d="M 437 80 L 334 60 L 420 151 Z" stroke="#96bff1" fill="#96bff1" style="animation-play-state:paused" ></path>
<path d="M 430 572 L 398 658 L 500 662 Z" stroke="#697bd3" fill="#697bd3" style="animation-play-state:paused" ></path>
<path d="M 611 764 L 699 750 L 610 667 Z" stroke="#6163c4" fill="#6163c4" style="animation-play-state:paused" ></path>
<path d="M 308 545 L 398 658 L 430 572 Z" stroke="#6d83d8" fill="#6d83d8" style="animation-play-state:paused" ></path>
<path d="M 231 475 L 335 467 L 320 352 Z" stroke="#7899e3" fill="#7899e3" style="animation-play-state:paused" ></path>
<path d="M 335 467 L 308 545 L 419 453 Z" stroke="#728ede" fill="#728ede" style="animation-play-state:paused" ></path>
<path d="M 813 770 L 907 660 L 811 661 Z" stroke="#5d50b6" fill="#5d50b6" style="animation-play-state:paused" ></path>
<path d="M 811 661 L 907 660 L 823 570 Z" stroke="#5e54b9" fill="#5e54b9" style="animation-play-state:paused" ></path>
<path d="M 416 -60 L 334 60 L 437 80 Z" stroke="#a3cbf5" fill="#a3cbf5" style="animation-play-state:paused" ></path>
<path d="M 206 155 L 236 274 L 317 263 Z" stroke="#8db6ee" fill="#8db6ee" style="animation-play-state:paused" ></path>
<path d="M 610 667 L 699 750 L 724 669 Z" stroke="#6060c2" fill="#6060c2" style="animation-play-state:paused" ></path>
<path d="M 724 669 L 813 770 L 811 661 Z" stroke="#5e56ba" fill="#5e56ba" style="animation-play-state:paused" ></path>
<path d="M 611 764 L 610 667 L 528 765 Z" stroke="#6369c7" fill="#6369c7" style="animation-play-state:paused" ></path>
<path d="M 528 765 L 610 667 L 500 662 Z" stroke="#646dca" fill="#646dca" style="animation-play-state:paused" ></path>
<path d="M 1021 77 L 945 -41 L 937 82 Z" stroke="#83a9e9" fill="#83a9e9" style="animation-play-state:paused" ></path>
<path d="M 206 155 L 317 263 L 318 164 Z" stroke="#90b9ef" fill="#90b9ef" style="animation-play-state:paused" ></path>
<path d="M 317 263 L 216 363 L 320 352 Z" stroke="#81a7e8" fill="#81a7e8" style="animation-play-state:paused" ></path>
<path d="M 1021 168 L 1021 77 L 937 82 Z" stroke="#789ae3" fill="#789ae3" style="animation-play-state:paused" ></path>
<path d="M 1134 164 L 1021 77 L 1021 168 Z" stroke="#7492df" fill="#7492df" style="animation-play-state:paused" ></path>
<path d="M 1123 283 L 1031 255 L 1035 368 Z" stroke="#6672ce" fill="#6672ce" style="animation-play-state:paused" ></path>
<path d="M 236 274 L 216 363 L 317 263 Z" stroke="#85adea" fill="#85adea" style="animation-play-state:paused" ></path>
<path d="M 414 -147 L 416 -60 L 516 -51 Z" stroke="#b2d8f9" fill="#b2d8f9" style="animation-play-state:paused" ></path>
<path d="M 516 -51 L 416 -60 L 437 80 Z" stroke="#a5cdf6" fill="#a5cdf6" style="animation-play-state:paused" ></path>
<path d="M 907 660 L 1047 560 L 911 556 Z" stroke="#5c4db4" fill="#5c4db4" style="animation-play-state:paused" ></path>
<path d="M 1029 483 L 1107 461 L 1035 368 Z" stroke="#5f5bbe" fill="#5f5bbe" style="animation-play-state:paused" ></path>
<path d="M 421 743 L 528 765 L 500 662 Z" stroke="#6673ce" fill="#6673ce" style="animation-play-state:paused" ></path>
<path d="M 216 363 L 231 475 L 320 352 Z" stroke="#7da1e6" fill="#7da1e6" style="animation-play-state:paused" ></path>
<path d="M 711 -164 L 714 -62 L 813 -140 Z" stroke="#abd2f8" fill="#abd2f8" style="animation-play-state:paused" ></path>
<path d="M 711 -164 L 624 -159 L 714 -62 Z" stroke="#b0d6f9" fill="#b0d6f9" style="animation-play-state:paused" ></path>
<path d="M 1103 543 L 1107 461 L 1029 483 Z" stroke="#5d50b7" fill="#5d50b7" style="animation-play-state:paused" ></path>
<path d="M 334 60 L 206 155 L 318 164 Z" stroke="#9ac3f2" fill="#9ac3f2" style="animation-play-state:paused" ></path>
<path d="M 236 274 L 127 250 L 216 363 Z" stroke="#8ab2ed" fill="#8ab2ed" style="animation-play-state:paused" ></path>
<path d="M 233 79 L 206 155 L 334 60 Z" stroke="#a0c9f4" fill="#a0c9f4" style="animation-play-state:paused" ></path>
<path d="M 1107 461 L 1134 374 L 1035 368 Z" stroke="#605fc1" fill="#605fc1" style="animation-play-state:paused" ></path>
<path d="M 1134 374 L 1123 283 L 1035 368 Z" stroke="#6369c8" fill="#6369c8" style="animation-play-state:paused" ></path>
<path d="M 813 -140 L 714 -62 L 805 -38 Z" stroke="#a0c9f4" fill="#a0c9f4" style="animation-play-state:paused" ></path>
<path d="M 611 764 L 813 770 L 699 750 Z" stroke="#5f5bbe" fill="#5f5bbe" style="animation-play-state:paused" ></path>
<path d="M 699 750 L 813 770 L 724 669 Z" stroke="#5e58bc" fill="#5e58bc" style="animation-play-state:paused" ></path>
<path d="M 907 660 L 1012 656 L 1047 560 Z" stroke="#5b47b0" fill="#5b47b0" style="animation-play-state:paused" ></path>
<path d="M 320 769 L 813 770 L 611 764 Z" stroke="#6268c7" fill="#6268c7" style="animation-play-state:paused" ></path>
<path d="M 218 664 L 334 667 L 308 545 Z" stroke="#708adc" fill="#708adc" style="animation-play-state:paused" ></path>
<path d="M 308 545 L 334 667 L 398 658 Z" stroke="#6d84d9" fill="#6d84d9" style="animation-play-state:paused" ></path>
<path d="M 398 658 L 421 743 L 500 662 Z" stroke="#6878d1" fill="#6878d1" style="animation-play-state:paused" ></path>
<path d="M 624 -159 L 529 -139 L 621 -46 Z" stroke="#b1d7f9" fill="#b1d7f9" style="animation-play-state:paused" ></path>
<path d="M 414 -147 L 529 -139 L 624 -159 Z" stroke="#b7dcf9" fill="#b7dcf9" style="animation-play-state:paused" ></path>
<path d="M 1123 283 L 1134 164 L 1031 255 Z" stroke="#6a7dd4" fill="#6a7dd4" style="animation-play-state:paused" ></path>
<path d="M 937 771 L 1012 656 L 907 660 Z" stroke="#5b44ae" fill="#5b44ae" style="animation-play-state:paused" ></path>
<path d="M 1047 560 L 1103 543 L 1029 483 Z" stroke="#5c4db4" fill="#5c4db4" style="animation-play-state:paused" ></path>
<path d="M 935 -130 L 813 -140 L 805 -38 Z" stroke="#a2caf5" fill="#a2caf5" style="animation-play-state:paused" ></path>
<path d="M 318 -39 L 334 60 L 416 -60 Z" stroke="#add4f8" fill="#add4f8" style="animation-play-state:paused" ></path>
<path d="M 226 -23 L 233 79 L 334 60 Z" stroke="#aad1f7" fill="#aad1f7" style="animation-play-state:paused" ></path>
<path d="M 334 667 L 421 743 L 398 658 Z" stroke="#6a7ed5" fill="#6a7ed5" style="animation-play-state:paused" ></path>
<path d="M 313 -137 L 318 -39 L 416 -60 Z" stroke="#b5dbf9" fill="#b5dbf9" style="animation-play-state:paused" ></path>
<path d="M 231 475 L 213 542 L 308 545 Z" stroke="#7595e1" fill="#7595e1" style="animation-play-state:paused" ></path>
<path d="M 334 667 L 320 769 L 421 743 Z" stroke="#6b7fd6" fill="#6b7fd6" style="animation-play-state:paused" ></path>
<path d="M 126 454 L 213 542 L 231 475 Z" stroke="#7b9ee5" fill="#7b9ee5" style="animation-play-state:paused" ></path>
<path d="M 1021 77 L 1022 -49 L 945 -41 Z" stroke="#89b1ec" fill="#89b1ec" style="animation-play-state:paused" ></path>
<path d="M 945 -41 L 935 -130 L 805 -38 Z" stroke="#99c2f2" fill="#99c2f2" style="animation-play-state:paused" ></path>
<path d="M 1117 -41 L 1022 -49 L 1021 77 Z" stroke="#87afeb" fill="#87afeb" style="animation-play-state:paused" ></path>
<path d="M 1123 678 L 1103 543 L 1047 560 Z" stroke="#5a41ab" fill="#5a41ab" style="animation-play-state:paused" ></path>
<path d="M 1107 461 L 1215 452 L 1134 374 Z" stroke="#5e57bb" fill="#5e57bb" style="animation-play-state:paused" ></path>
<path d="M 813 770 L 937 771 L 907 660 Z" stroke="#5c49b2" fill="#5c49b2" style="animation-play-state:paused" ></path>
<path d="M 1012 656 L 1123 678 L 1047 560 Z" stroke="#5a3faa" fill="#5a3faa" style="animation-play-state:paused" ></path>
<path d="M 1022 -49 L 935 -130 L 945 -41 Z" stroke="#97c0f1" fill="#97c0f1" style="animation-play-state:paused" ></path>
<path d="M 1203 151 L 1140 52 L 1134 164 Z" stroke="#7390df" fill="#7390df" style="animation-play-state:paused" ></path>
<path d="M 1134 164 L 1140 52 L 1021 77 Z" stroke="#7798e2" fill="#7798e2" style="animation-play-state:paused" ></path>
<path d="M 1022 -49 L 1038 -147 L 935 -130 Z" stroke="#9dc5f3" fill="#9dc5f3" style="animation-play-state:paused" ></path>
<path d="M 711 -164 L 414 -147 L 624 -159 Z" stroke="#b6dbf9" fill="#b6dbf9" style="animation-play-state:paused" ></path>
<path d="M 529 -139 L 414 -147 L 516 -51 Z" stroke="#b4daf9" fill="#b4daf9" style="animation-play-state:paused" ></path>
<path d="M 97 -154 L 414 -147 L 711 -164 Z" stroke="#bbe0fa" fill="#bbe0fa" style="animation-play-state:paused" ></path>
<path d="M 111 147 L 127 250 L 206 155 Z" stroke="#9cc5f3" fill="#9cc5f3" style="animation-play-state:paused" ></path>
<path d="M 206 155 L 127 250 L 236 274 Z" stroke="#93bcf0" fill="#93bcf0" style="animation-play-state:paused" ></path>
<path d="M 216 363 L 126 454 L 231 475 Z" stroke="#7ea3e7" fill="#7ea3e7" style="animation-play-state:paused" ></path>
<path d="M 127 250 L 112 344 L 216 363 Z" stroke="#8bb3ed" fill="#8bb3ed" style="animation-play-state:paused" ></path>
<path d="M 132 655 L 218 664 L 213 542 Z" stroke="#7595e1" fill="#7595e1" style="animation-play-state:paused" ></path>
<path d="M 213 542 L 218 664 L 308 545 Z" stroke="#7391df" fill="#7391df" style="animation-play-state:paused" ></path>
<path d="M 318 -39 L 226 -23 L 334 60 Z" stroke="#b0d6f9" fill="#b0d6f9" style="animation-play-state:paused" ></path>
<path d="M 138 82 L 111 147 L 206 155 Z" stroke="#a4ccf6" fill="#a4ccf6" style="animation-play-state:paused" ></path>
<path d="M 216 -121 L 226 -23 L 318 -39 Z" stroke="#b7dcf9" fill="#b7dcf9" style="animation-play-state:paused" ></path>
<path d="M 218 664 L 320 769 L 334 667 Z" stroke="#6e86da" fill="#6e86da" style="animation-play-state:paused" ></path>
<path d="M 421 743 L 320 769 L 528 765 Z" stroke="#6878d1" fill="#6878d1" style="animation-play-state:paused" ></path>
<path d="M 528 765 L 320 769 L 611 764 Z" stroke="#6672cd" fill="#6672cd" style="animation-play-state:paused" ></path>
<path d="M 813 770 L 1430 769 L 937 771 Z" stroke="#59389f" fill="#59389f" style="animation-play-state:paused" ></path>
<path d="M 1103 543 L 1215 452 L 1107 461 Z" stroke="#5c4eb5" fill="#5c4eb5" style="animation-play-state:paused" ></path>
<path d="M 1134 374 L 1225 375 L 1123 283 Z" stroke="#6266c5" fill="#6266c5" style="animation-play-state:paused" ></path>
<path d="M 1123 283 L 1203 151 L 1134 164 Z" stroke="#6c81d7" fill="#6c81d7" style="animation-play-state:paused" ></path>
<path d="M 112 344 L 126 454 L 216 363 Z" stroke="#84acea" fill="#84acea" style="animation-play-state:paused" ></path>
<path d="M 937 771 L 1006 751 L 1012 656 Z" stroke="#5a3faa" fill="#5a3faa" style="animation-play-state:paused" ></path>
<path d="M 1103 543 L 1238 562 L 1215 452 Z" stroke="#5b45ae" fill="#5b45ae" style="animation-play-state:paused" ></path>
<path d="M 1215 452 L 1225 375 L 1134 374 Z" stroke="#5f5abd" fill="#5f5abd" style="animation-play-state:paused" ></path>
<path d="M 138 82 L 206 155 L 233 79 Z" stroke="#a4ccf6" fill="#a4ccf6" style="animation-play-state:paused" ></path>
<path d="M 127 250 L 31 353 L 112 344 Z" stroke="#90b9ef" fill="#90b9ef" style="animation-play-state:paused" ></path>
<path d="M 112 344 L 31 353 L 126 454 Z" stroke="#89b2ec" fill="#89b2ec" style="animation-play-state:paused" ></path>
<path d="M 1225 375 L 1232 271 L 1123 283 Z" stroke="#636bc9" fill="#636bc9" style="animation-play-state:paused" ></path>
<path d="M 414 -147 L 313 -137 L 416 -60 Z" stroke="#b8ddf9" fill="#b8ddf9" style="animation-play-state:paused" ></path>
<path d="M 1232 271 L 1203 151 L 1123 283 Z" stroke="#6879d2" fill="#6879d2" style="animation-play-state:paused" ></path>
<path d="M 1006 751 L 1123 678 L 1012 656 Z" stroke="#593ca5" fill="#593ca5" style="animation-play-state:paused" ></path>
<path d="M 1117 -41 L 1021 77 L 1140 52 Z" stroke="#80a6e8" fill="#80a6e8" style="animation-play-state:paused" ></path>
<path d="M 1117 -41 L 1038 -147 L 1022 -49 Z" stroke="#94bdf1" fill="#94bdf1" style="animation-play-state:paused" ></path>
<path d="M 935 -130 L 1092 -161 L 813 -140 Z" stroke="#a7cef6" fill="#a7cef6" style="animation-play-state:paused" ></path>
<path d="M 1215 -38 L 1117 -41 L 1140 52 Z" stroke="#85acea" fill="#85acea" style="animation-play-state:paused" ></path>
<path d="M 140 -35 L 138 82 L 226 -23 Z" stroke="#b4daf9" fill="#b4daf9" style="animation-play-state:paused" ></path>
<path d="M 226 -23 L 138 82 L 233 79 Z" stroke="#aed5f9" fill="#aed5f9" style="animation-play-state:paused" ></path>
<path d="M 126 454 L 122 570 L 213 542 Z" stroke="#7b9fe5" fill="#7b9fe5" style="animation-play-state:paused" ></path>
<path d="M 313 -137 L 216 -121 L 318 -39 Z" stroke="#badffa" fill="#badffa" style="animation-play-state:paused" ></path>
<path d="M 1309 153 L 1225 78 L 1203 151 Z" stroke="#718cdd" fill="#718cdd" style="animation-play-state:paused" ></path>
<path d="M 1203 151 L 1225 78 L 1140 52 Z" stroke="#7595e1" fill="#7595e1" style="animation-play-state:paused" ></path>
<path d="M 132 655 L 225 752 L 218 664 Z" stroke="#7391df" fill="#7391df" style="animation-play-state:paused" ></path>
<path d="M 218 664 L 225 752 L 320 769 Z" stroke="#7089dc" fill="#7089dc" style="animation-play-state:paused" ></path>
<path d="M 1123 678 L 1238 562 L 1103 543 Z" stroke="#593ca6" fill="#593ca6" style="animation-play-state:paused" ></path>
<path d="M 1215 452 L 1326 464 L 1225 375 Z" stroke="#5d51b7" fill="#5d51b7" style="animation-play-state:paused" ></path>
<path d="M 1339 361 L 1319 262 L 1232 271 Z" stroke="#6369c7" fill="#6369c7" style="animation-play-state:paused" ></path>
<path d="M 1237 679 L 1238 562 L 1123 678 Z" stroke="#58359b" fill="#58359b" style="animation-play-state:paused" ></path>
<path d="M 216 -121 L 140 -35 L 226 -23 Z" stroke="#b9defa" fill="#b9defa" style="animation-play-state:paused" ></path>
<path d="M 27 167 L -2 243 L 111 147 Z" stroke="#a5cdf6" fill="#a5cdf6" style="animation-play-state:paused" ></path>
<path d="M 26 571 L 132 655 L 122 570 Z" stroke="#7ca0e5" fill="#7ca0e5" style="animation-play-state:paused" ></path>
<path d="M 122 570 L 132 655 L 213 542 Z" stroke="#789ae3" fill="#789ae3" style="animation-play-state:paused" ></path>
<path d="M -2 243 L 31 353 L 127 250 Z" stroke="#97c0f1" fill="#97c0f1" style="animation-play-state:paused" ></path>
<path d="M 126 454 L 21 459 L 122 570 Z" stroke="#81a7e8" fill="#81a7e8" style="animation-play-state:paused" ></path>
<path d="M -2 243 L 127 250 L 111 147 Z" stroke="#9ec6f4" fill="#9ec6f4" style="animation-play-state:paused" ></path>
<path d="M 937 771 L 1131 767 L 1006 751 Z" stroke="#593ba4" fill="#593ba4" style="animation-play-state:paused" ></path>
<path d="M 1006 751 L 1131 767 L 1123 678 Z" stroke="#58379e" fill="#58379e" style="animation-play-state:paused" ></path>
<path d="M 31 353 L 21 459 L 126 454 Z" stroke="#89b1ec" fill="#89b1ec" style="animation-play-state:paused" ></path>
<path d="M 1205 -167 L 1092 -161 L 1117 -41 Z" stroke="#9bc4f3" fill="#9bc4f3" style="animation-play-state:paused" ></path>
<path d="M 1117 -41 L 1092 -161 L 1038 -147 Z" stroke="#9bc4f3" fill="#9bc4f3" style="animation-play-state:paused" ></path>
<path d="M 1038 -147 L 1092 -161 L 935 -130 Z" stroke="#a4ccf6" fill="#a4ccf6" style="animation-play-state:paused" ></path>
<path d="M 27 167 L 111 147 L 19 83 Z" stroke="#acd3f8" fill="#acd3f8" style="animation-play-state:paused" ></path>
<path d="M -72 542 L 26 571 L 21 459 Z" stroke="#87afeb" fill="#87afeb" style="animation-play-state:paused" ></path>
<path d="M 1225 78 L 1215 -38 L 1140 52 Z" stroke="#7ea2e7" fill="#7ea2e7" style="animation-play-state:paused" ></path>
<path d="M 1339 361 L 1232 271 L 1225 375 Z" stroke="#6163c3" fill="#6163c3" style="animation-play-state:paused" ></path>
<path d="M 1232 271 L 1309 153 L 1203 151 Z" stroke="#6b7fd6" fill="#6b7fd6" style="animation-play-state:paused" ></path>
<path d="M 1225 78 L 1312 52 L 1215 -38 Z" stroke="#7da1e6" fill="#7da1e6" style="animation-play-state:paused" ></path>
<path d="M 19 83 L 111 147 L 138 82 Z" stroke="#aed4f8" fill="#aed4f8" style="animation-play-state:paused" ></path>
<path d="M 1332 577 L 1326 464 L 1238 562 Z" stroke="#593ca5" fill="#593ca5" style="animation-play-state:paused" ></path>
<path d="M 1238 562 L 1326 464 L 1215 452 Z" stroke="#5b45ae" fill="#5b45ae" style="animation-play-state:paused" ></path>
<path d="M 1326 464 L 1339 361 L 1225 375 Z" stroke="#5e55ba" fill="#5e55ba" style="animation-play-state:paused" ></path>
<path d="M 140 -35 L 19 83 L 138 82 Z" stroke="#b3d9f9" fill="#b3d9f9" style="animation-play-state:paused" ></path>
<path d="M 1131 767 L 1237 679 L 1123 678 Z" stroke="#573297" fill="#573297" style="animation-play-state:paused" ></path>
<path d="M 1428 175 L 1309 153 L 1319 262 Z" stroke="#697bd3" fill="#697bd3" style="animation-play-state:paused" ></path>
<path d="M 1319 262 L 1309 153 L 1232 271 Z" stroke="#6777d0" fill="#6777d0" style="animation-play-state:paused" ></path>
<path d="M 21 459 L 26 571 L 122 570 Z" stroke="#81a8e9" fill="#81a8e9" style="animation-play-state:paused" ></path>
<path d="M 29 668 L 26 571 L -67 671 Z" stroke="#82a8e9" fill="#82a8e9" style="animation-play-state:paused" ></path>
<path d="M 29 668 L 111 735 L 132 655 Z" stroke="#799ce4" fill="#799ce4" style="animation-play-state:paused" ></path>
<path d="M 132 655 L 111 735 L 225 752 Z" stroke="#7594e1" fill="#7594e1" style="animation-play-state:paused" ></path>
<path d="M 225 752 L 111 735 L 320 769 Z" stroke="#718ddd" fill="#718ddd" style="animation-play-state:paused" ></path>
<path d="M 1309 153 L 1312 52 L 1225 78 Z" stroke="#7492e0" fill="#7492e0" style="animation-play-state:paused" ></path>
<path d="M 1215 -38 L 1205 -167 L 1117 -41 Z" stroke="#91baef" fill="#91baef" style="animation-play-state:paused" ></path>
<path d="M 1237 679 L 1332 577 L 1238 562 Z" stroke="#58349a" fill="#58349a" style="animation-play-state:paused" ></path>
<path d="M 1404 456 L 1407 355 L 1339 361 Z" stroke="#5d53b8" fill="#5d53b8" style="animation-play-state:paused" ></path>
<path d="M 937 771 L 1216 776 L 1131 767 Z" stroke="#58359b" fill="#58359b" style="animation-play-state:paused" ></path>
<path d="M 1131 767 L 1216 776 L 1237 679 Z" stroke="#562f91" fill="#562f91" style="animation-play-state:paused" ></path>
<path d="M 1237 679 L 1322 675 L 1332 577 Z" stroke="#562f91" fill="#562f91" style="animation-play-state:paused" ></path>
<path d="M 1430 769 L 1216 776 L 937 771 Z" stroke="#552e8f" fill="#552e8f" style="animation-play-state:paused" ></path>
<path d="M 1329 -116 L 1205 -167 L 1215 -38 Z" stroke="#95bef1" fill="#95bef1" style="animation-play-state:paused" ></path>
<path d="M 1092 -161 L 1205 -167 L 813 -140 Z" stroke="#a6cef6" fill="#a6cef6" style="animation-play-state:paused" ></path>
<path d="M 813 -140 L 97 -154 L 711 -164 Z" stroke="#b7dcf9" fill="#b7dcf9" style="animation-play-state:paused" ></path>
<path d="M -62 370 L 21 459 L 31 353 Z" stroke="#90b9ef" fill="#90b9ef" style="animation-play-state:paused" ></path>
<path d="M 26 571 L 29 668 L 132 655 Z" stroke="#7da1e6" fill="#7da1e6" style="animation-play-state:paused" ></path>
<path d="M 216 -121 L 97 -154 L 140 -35 Z" stroke="#c0e3fa" fill="#c0e3fa" style="animation-play-state:paused" ></path>
<path d="M 140 -35 L 17 -49 L 19 83 Z" stroke="#b9defa" fill="#b9defa" style="animation-play-state:paused" ></path>
<path d="M 313 -137 L 97 -154 L 216 -121 Z" stroke="#c1e4fa" fill="#c1e4fa" style="animation-play-state:paused" ></path>
<path d="M 414 -147 L 97 -154 L 313 -137 Z" stroke="#c0e3fa" fill="#c0e3fa" style="animation-play-state:paused" ></path>
<path d="M 1205 -167 L 97 -154 L 813 -140 Z" stroke="#b2d8f9" fill="#b2d8f9" style="animation-play-state:paused" ></path>
<path d="M -80 261 L 31 353 L -2 243 Z" stroke="#9dc6f3" fill="#9dc6f3" style="animation-play-state:paused" ></path>
<path d="M -80 261 L -62 370 L 31 353 Z" stroke="#9ac3f2" fill="#9ac3f2" style="animation-play-state:paused" ></path>
<path d="M -80 261 L -2 243 L -63 181 Z" stroke="#a7cff7" fill="#a7cff7" style="animation-play-state:paused" ></path>
<path d="M -2 243 L 27 167 L -63 181 Z" stroke="#a8d0f7" fill="#a8d0f7" style="animation-play-state:paused" ></path>
<path d="M -63 181 L 27 167 L -97 46 Z" stroke="#b3d8f9" fill="#b3d8f9" style="animation-play-state:paused" ></path>
<path d="M 97 -154 L 17 -49 L 140 -35 Z" stroke="#c0e4fa" fill="#c0e4fa" style="animation-play-state:paused" ></path>
<path d="M -97 46 L 27 167 L 19 83 Z" stroke="#b4daf9" fill="#b4daf9" style="animation-play-state:paused" ></path>
<path d="M -172 381 L -97 459 L -62 370 Z" stroke="#99c2f2" fill="#99c2f2" style="animation-play-state:paused" ></path>
<path d="M 1404 456 L 1339 361 L 1326 464 Z" stroke="#5c4db4" fill="#5c4db4" style="animation-play-state:paused" ></path>
<path d="M 1339 361 L 1407 355 L 1319 262 Z" stroke="#6161c2" fill="#6161c2" style="animation-play-state:paused" ></path>
<path d="M 1421 -20 L 1329 -50 L 1312 52 Z" stroke="#80a6e8" fill="#80a6e8" style="animation-play-state:paused" ></path>
<path d="M 1426 62 L 1312 52 L 1309 153 Z" stroke="#7391df" fill="#7391df" style="animation-play-state:paused" ></path>
<path d="M 1312 52 L 1329 -50 L 1215 -38 Z" stroke="#82a9e9" fill="#82a9e9" style="animation-play-state:paused" ></path>
<path d="M 1307 752 L 1322 675 L 1237 679 Z" stroke="#542a8a" fill="#542a8a" style="animation-play-state:paused" ></path>
<path d="M 1332 577 L 1404 456 L 1326 464 Z" stroke="#5a3ea9" fill="#5a3ea9" style="animation-play-state:paused" ></path>
<path d="M 1430 570 L 1404 456 L 1332 577 Z" stroke="#58389f" fill="#58389f" style="animation-play-state:paused" ></path>
<path d="M -172 381 L -62 370 L -80 261 Z" stroke="#9fc8f4" fill="#9fc8f4" style="animation-play-state:paused" ></path>
<path d="M -62 370 L -97 459 L 21 459 Z" stroke="#91baef" fill="#91baef" style="animation-play-state:paused" ></path>
<path d="M 1514 351 L 1433 287 L 1407 355 Z" stroke="#605dc0" fill="#605dc0" style="animation-play-state:paused" ></path>
<path d="M 1407 355 L 1433 287 L 1319 262 Z" stroke="#6265c5" fill="#6265c5" style="animation-play-state:paused" ></path>
<path d="M -67 671 L 26 768 L 29 668 Z" stroke="#80a5e8" fill="#80a5e8" style="animation-play-state:paused" ></path>
<path d="M 29 668 L 26 768 L 111 735 Z" stroke="#7b9fe5" fill="#7b9fe5" style="animation-play-state:paused" ></path>
<path d="M 111 735 L 26 768 L 320 769 Z" stroke="#7594e0" fill="#7594e0" style="animation-play-state:paused" ></path>
<path d="M -97 459 L -72 542 L 21 459 Z" stroke="#8db5ee" fill="#8db5ee" style="animation-play-state:paused" ></path>
<path d="M 1433 287 L 1428 175 L 1319 262 Z" stroke="#6571cd" fill="#6571cd" style="animation-play-state:paused" ></path>
<path d="M 17 -49 L -97 46 L 19 83 Z" stroke="#badffa" fill="#badffa" style="animation-play-state:paused" ></path>
<path d="M -189 262 L -172 381 L -80 261 Z" stroke="#a8cff7" fill="#a8cff7" style="animation-play-state:paused" ></path>
<path d="M 97 -154 L 12 -152 L 17 -49 Z" stroke="#c7e8fb" fill="#c7e8fb" style="animation-play-state:paused" ></path>
<path d="M 17 -49 L -84 -49 L -97 46 Z" stroke="#c0e4fa" fill="#c0e4fa" style="animation-play-state:paused" ></path>
<path d="M 1216 776 L 1307 752 L 1237 679 Z" stroke="#542a8b" fill="#542a8b" style="animation-play-state:paused" ></path>
<path d="M 1424 679 L 1430 570 L 1332 577 Z" stroke="#552e8f" fill="#552e8f" style="animation-play-state:paused" ></path>
<path d="M 1428 175 L 1426 62 L 1309 153 Z" stroke="#6f88db" fill="#6f88db" style="animation-play-state:paused" ></path>
<path d="M 1329 -50 L 1329 -116 L 1215 -38 Z" stroke="#8cb5ed" fill="#8cb5ed" style="animation-play-state:paused" ></path>
<path d="M 1421 -20 L 1329 -116 L 1329 -50 Z" stroke="#8ab2ec" fill="#8ab2ec" style="animation-play-state:paused" ></path>
<path d="M -72 542 L -67 671 L 26 571 Z" stroke="#86adeb" fill="#86adeb" style="animation-play-state:paused" ></path>
<path d="M 1424 679 L 1332 577 L 1322 675 Z" stroke="#542b8c" fill="#542b8c" style="animation-play-state:paused" ></path>
<path d="M 1404 456 L 1514 351 L 1407 355 Z" stroke="#5d52b8" fill="#5d52b8" style="animation-play-state:paused" ></path>
<path d="M -97 459 L -177 453 L -72 542 Z" stroke="#93bcf0" fill="#93bcf0" style="animation-play-state:paused" ></path>
<path d="M -72 542 L -180 674 L -67 671 Z" stroke="#8ab3ed" fill="#8ab3ed" style="animation-play-state:paused" ></path>
<path d="M -189 262 L -80 261 L -63 181 Z" stroke="#add3f8" fill="#add3f8" style="animation-play-state:paused" ></path>
<path d="M -65 -136 L -84 -49 L 17 -49 Z" stroke="#c7e8fa" fill="#c7e8fa" style="animation-play-state:paused" ></path>
<path d="M -170 156 L -189 262 L -63 181 Z" stroke="#b2d8f9" fill="#b2d8f9" style="animation-play-state:paused" ></path>
<path d="M 1514 65 L 1421 -20 L 1426 62 Z" stroke="#799be4" fill="#799be4" style="animation-play-state:paused" ></path>
<path d="M 1426 62 L 1421 -20 L 1312 52 Z" stroke="#7a9de4" fill="#7a9de4" style="animation-play-state:paused" ></path>
<path d="M 1515 166 L 1426 62 L 1428 175 Z" stroke="#6e85d9" fill="#6e85d9" style="animation-play-state:paused" ></path>
<path d="M 1307 752 L 1424 679 L 1322 675 Z" stroke="#522684" fill="#522684" style="animation-play-state:paused" ></path>
<path d="M 1524 448 L 1514 351 L 1404 456 Z" stroke="#5c4ab2" fill="#5c4ab2" style="animation-play-state:paused" ></path>
<path d="M 1524 448 L 1404 456 L 1430 570 Z" stroke="#593ca6" fill="#593ca6" style="animation-play-state:paused" ></path>
<path d="M 1433 287 L 1535 267 L 1428 175 Z" stroke="#656fcc" fill="#656fcc" style="animation-play-state:paused" ></path>
<path d="M -170 156 L -63 181 L -163 85 Z" stroke="#b6dcf9" fill="#b6dcf9" style="animation-play-state:paused" ></path>
<path d="M 12 -152 L -65 -136 L 17 -49 Z" stroke="#c9e9fb" fill="#c9e9fb" style="animation-play-state:paused" ></path>
<path d="M -163 85 L -63 181 L -97 46 Z" stroke="#b8ddf9" fill="#b8ddf9" style="animation-play-state:paused" ></path>
<path d="M -279 379 L -177 453 L -172 381 Z" stroke="#a3cbf5" fill="#a3cbf5" style="animation-play-state:paused" ></path>
<path d="M -172 381 L -177 453 L -97 459 Z" stroke="#9ac3f3" fill="#9ac3f3" style="animation-play-state:paused" ></path>
<path d="M -163 85 L -97 46 L -176 -33 Z" stroke="#c0e4fa" fill="#c0e4fa" style="animation-play-state:paused" ></path>
<path d="M -180 674 L -90 759 L -67 671 Z" stroke="#89b1ec" fill="#89b1ec" style="animation-play-state:paused" ></path>
<path d="M -67 671 L -90 759 L 26 768 Z" stroke="#82a9e9" fill="#82a9e9" style="animation-play-state:paused" ></path>
<path d="M 26 768 L -90 759 L 320 769 Z" stroke="#799be3" fill="#799be3" style="animation-play-state:paused" ></path>
<path d="M -176 -33 L -97 46 L -84 -49 Z" stroke="#c3e6fa" fill="#c3e6fa" style="animation-play-state:paused" ></path>
<path d="M 1521 561 L 1524 448 L 1430 570 Z" stroke="#58369c" fill="#58369c" style="animation-play-state:paused" ></path>
<path d="M -177 453 L -174 570 L -72 542 Z" stroke="#93bcf0" fill="#93bcf0" style="animation-play-state:paused" ></path>
<path d="M 1631 243 L 1535 267 L 1630 352 Z" stroke="#6164c4" fill="#6164c4" style="animation-play-state:paused" ></path>
<path d="M 1514 351 L 1535 267 L 1433 287 Z" stroke="#6162c3" fill="#6162c3" style="animation-play-state:paused" ></path>
<path d="M 1535 267 L 1515 166 L 1428 175 Z" stroke="#6877d1" fill="#6877d1" style="animation-play-state:paused" ></path>
<path d="M 1524 -129 L 1409 -165 L 1421 -20 Z" stroke="#91baef" fill="#91baef" style="animation-play-state:paused" ></path>
<path d="M 1421 -20 L 1409 -165 L 1329 -116 Z" stroke="#91baef" fill="#91baef" style="animation-play-state:paused" ></path>
<path d="M 1329 -116 L 1409 -165 L 1205 -167 Z" stroke="#9cc5f3" fill="#9cc5f3" style="animation-play-state:paused" ></path>
<path d="M 1515 166 L 1514 65 L 1426 62 Z" stroke="#718ddd" fill="#718ddd" style="animation-play-state:paused" ></path>
<path d="M 1530 675 L 1521 561 L 1430 570 Z" stroke="#542b8b" fill="#542b8b" style="animation-play-state:paused" ></path>
<path d="M 1307 752 L 1430 769 L 1424 679 Z" stroke="#50217c" fill="#50217c" style="animation-play-state:paused" ></path>
<path d="M 1216 776 L 1430 769 L 1307 752 Z" stroke="#522482" fill="#522482" style="animation-play-state:paused" ></path>
<path d="M 320 769 L 1430 769 L 813 770 Z" stroke="#5c4cb3" fill="#5c4cb3" style="animation-play-state:paused" ></path>
<path d="M 1530 675 L 1430 570 L 1424 679 Z" stroke="#532684" fill="#532684" style="animation-play-state:paused" ></path>
<path d="M 1524 448 L 1600 460 L 1514 351 Z" stroke="#5b48b1" fill="#5b48b1" style="animation-play-state:paused" ></path>
<path d="M -174 570 L -180 674 L -72 542 Z" stroke="#8fb8ee" fill="#8fb8ee" style="animation-play-state:paused" ></path>
<path d="M -273 683 L -180 674 L -174 570 Z" stroke="#94bdf0" fill="#94bdf0" style="animation-play-state:paused" ></path>
<path d="M -190 -147 L -176 -33 L -84 -49 Z" stroke="#ccebfb" fill="#ccebfb" style="animation-play-state:paused" ></path>
<path d="M -301 157 L -189 262 L -170 156 Z" stroke="#b7dcf9" fill="#b7dcf9" style="animation-play-state:paused" ></path>
<path d="M -282 263 L -279 379 L -189 262 Z" stroke="#b1d7f9" fill="#b1d7f9" style="animation-play-state:paused" ></path>
<path d="M -189 262 L -279 379 L -172 381 Z" stroke="#aad1f7" fill="#aad1f7" style="animation-play-state:paused" ></path>
<path d="M -177 453 L -280 472 L -174 570 Z" stroke="#9bc4f3" fill="#9bc4f3" style="animation-play-state:paused" ></path>
<path d="M -282 263 L -189 262 L -301 157 Z" stroke="#b6dcf9" fill="#b6dcf9" style="animation-play-state:paused" ></path>
<path d="M 1594 149 L 1514 65 L 1515 166 Z" stroke="#6e86da" fill="#6e86da" style="animation-play-state:paused" ></path>
<path d="M 1607 69 L 1529 -50 L 1514 65 Z" stroke="#799ce4" fill="#799ce4" style="animation-play-state:paused" ></path>
<path d="M 1514 65 L 1529 -50 L 1421 -20 Z" stroke="#7ea3e7" fill="#7ea3e7" style="animation-play-state:paused" ></path>
<path d="M 1507 751 L 1530 675 L 1424 679 Z" stroke="#4f1e77" fill="#4f1e77" style="animation-play-state:paused" ></path>
<path d="M 1521 561 L 1600 460 L 1524 448 Z" stroke="#593aa3" fill="#593aa3" style="animation-play-state:paused" ></path>
<path d="M -279 379 L -280 472 L -177 453 Z" stroke="#a4ccf6" fill="#a4ccf6" style="animation-play-state:paused" ></path>
<path d="M -273 683 L -170 755 L -180 674 Z" stroke="#92bbef" fill="#92bbef" style="animation-play-state:paused" ></path>
<path d="M -180 674 L -170 755 L -90 759 Z" stroke="#8bb4ed" fill="#8bb4ed" style="animation-play-state:paused" ></path>
<path d="M -90 759 L -170 755 L 320 769 Z" stroke="#7da2e6" fill="#7da2e6" style="animation-play-state:paused" ></path>
<path d="M 320 769 L -170 755 L 1430 769 Z" stroke="#646ecb" fill="#646ecb" style="animation-play-state:paused" ></path>
<path d="M -301 157 L -170 156 L -163 85 Z" stroke="#bbdffa" fill="#bbdffa" style="animation-play-state:paused" ></path>
<path d="M -279 379 L -294 546 L -280 472 Z" stroke="#a6cdf6" fill="#a6cdf6" style="animation-play-state:paused" ></path>
<path d="M 1622 563 L 1600 460 L 1521 561 Z" stroke="#573499" fill="#573499" style="animation-play-state:paused" ></path>
<path d="M 1535 267 L 1631 243 L 1515 166 Z" stroke="#6571cd" fill="#6571cd" style="animation-play-state:paused" ></path>
<path d="M -65 -136 L -190 -147 L -84 -49 Z" stroke="#ceedfb" fill="#ceedfb" style="animation-play-state:paused" ></path>
<path d="M -297 65 L -301 157 L -163 85 Z" stroke="#c0e3fa" fill="#c0e3fa" style="animation-play-state:paused" ></path>
<path d="M 12 -152 L -190 -147 L -65 -136 Z" stroke="#d1eefb" fill="#d1eefb" style="animation-play-state:paused" ></path>
<path d="M 97 -154 L -190 -147 L 12 -152 Z" stroke="#cfedfb" fill="#cfedfb" style="animation-play-state:paused" ></path>
<path d="M 1630 352 L 1535 267 L 1514 351 Z" stroke="#605dbf" fill="#605dbf" style="animation-play-state:paused" ></path>
<path d="M 1631 243 L 1594 149 L 1515 166 Z" stroke="#6879d2" fill="#6879d2" style="animation-play-state:paused" ></path>
<path d="M 1430 769 L 1507 751 L 1424 679 Z" stroke="#4e1c76" fill="#4e1c76" style="animation-play-state:paused" ></path>
<path d="M 1632 664 L 1622 563 L 1521 561 Z" stroke="#542988" fill="#542988" style="animation-play-state:paused" ></path>
<path d="M -297 65 L -163 85 L -270 -19 Z" stroke="#c5e7fa" fill="#c5e7fa" style="animation-play-state:paused" ></path>
<path d="M 1600 460 L 1630 352 L 1514 351 Z" stroke="#5d4fb5" fill="#5d4fb5" style="animation-play-state:paused" ></path>
<path d="M -282 263 L -294 546 L -279 379 Z" stroke="#acd3f8" fill="#acd3f8" style="animation-play-state:paused" ></path>
<path d="M -280 472 L -294 546 L -174 570 Z" stroke="#9dc6f3" fill="#9dc6f3" style="animation-play-state:paused" ></path>
<path d="M 1620 -33 L 1524 -129 L 1529 -50 Z" stroke="#89b1ec" fill="#89b1ec" style="animation-play-state:paused" ></path>
<path d="M 1529 -50 L 1524 -129 L 1421 -20 Z" stroke="#89b1ec" fill="#89b1ec" style="animation-play-state:paused" ></path>
<path d="M -270 -19 L -163 85 L -176 -33 Z" stroke="#c6e7fa" fill="#c6e7fa" style="animation-play-state:paused" ></path>
<path d="M 1632 664 L 1521 561 L 1530 675 Z" stroke="#522481" fill="#522481" style="animation-play-state:paused" ></path>
<path d="M 1600 460 L 1622 563 L 1630 352 Z" stroke="#5a3ea9" fill="#5a3ea9" style="animation-play-state:paused" ></path>
<path d="M -190 -147 L -270 -19 L -176 -33 Z" stroke="#cfedfb" fill="#cfedfb" style="animation-play-state:paused" ></path>
<path d="M -294 546 L -273 683 L -174 570 Z" stroke="#99c2f2" fill="#99c2f2" style="animation-play-state:paused" ></path>
<path d="M 1631 243 L 1607 69 L 1594 149 Z" stroke="#6b80d6" fill="#6b80d6" style="animation-play-state:paused" ></path>
<path d="M 1594 149 L 1607 69 L 1514 65 Z" stroke="#718cdd" fill="#718cdd" style="animation-play-state:paused" ></path>
<path d="M 1630 352 L 1607 69 L 1631 243 Z" stroke="#6672cd" fill="#6672cd" style="animation-play-state:paused" ></path>
<path d="M 1607 69 L 1620 -33 L 1529 -50 Z" stroke="#7ea2e7" fill="#7ea2e7" style="animation-play-state:paused" ></path>
<path d="M 1612 774 L 1632 664 L 1530 675 Z" stroke="#4c1870" fill="#4c1870" style="animation-play-state:paused" ></path>
<path d="M 1622 563 L 1632 664 L 1630 352 Z" stroke="#573398" fill="#573398" style="animation-play-state:paused" ></path>
<path d="M -294 546 L -278 759 L -273 683 Z" stroke="#9ac3f2" fill="#9ac3f2" style="animation-play-state:paused" ></path>
<path d="M -273 683 L -278 759 L -170 755 Z" stroke="#94bdf0" fill="#94bdf0" style="animation-play-state:paused" ></path>
<path d="M 97 -154 L -295 -160 L -190 -147 Z" stroke="#d5f0fc" fill="#d5f0fc" style="animation-play-state:paused" ></path>
<path d="M -190 -147 L -295 -160 L -270 -19 Z" stroke="#d6f1fc" fill="#d6f1fc" style="animation-play-state:paused" ></path>
<path d="M -270 -19 L -295 -160 L -297 65 Z" stroke="#d0eefb" fill="#d0eefb" style="animation-play-state:paused" ></path>
<path d="M -297 65 L -295 -160 L -301 157 Z" stroke="#caeafb" fill="#caeafb" style="animation-play-state:paused" ></path>
<path d="M 1430 769 L 1612 774 L 1507 751 Z" stroke="#4b166c" fill="#4b166c" style="animation-play-state:paused" ></path>
<path d="M 1507 751 L 1612 774 L 1530 675 Z" stroke="#4b166d" fill="#4b166d" style="animation-play-state:paused" ></path>
<path d="M 1632 664 L 1612 774 L 1630 352 Z" stroke="#532887" fill="#532887" style="animation-play-state:paused" ></path>
<path d="M 1630 352 L 1613 -144 L 1607 69 Z" stroke="#718ddd" fill="#718ddd" style="animation-play-state:paused" ></path>
<path d="M 1607 69 L 1613 -144 L 1620 -33 Z" stroke="#83a9e9" fill="#83a9e9" style="animation-play-state:paused" ></path>
<path d="M 1620 -33 L 1613 -144 L 1524 -129 Z" stroke="#8fb8ee" fill="#8fb8ee" style="animation-play-state:paused" ></path>
<path d="M 1524 -129 L 1613 -144 L 1409 -165 Z" stroke="#99c2f2" fill="#99c2f2" style="animation-play-state:paused" ></path>
<path d="M 1612 774 L 1613 -144 L 1630 352 Z" stroke="#5f5bbe" fill="#5f5bbe" style="animation-play-state:paused" ></path></g>
<style type="text/css" style="animation-play-state:paused" >#bk-0.45057313328736526 path { stroke-width: 1 }</style></g></svg>